HIERARCHY
ROOT Hips
{
	OFFSET -3.958830 18.904000 13.208200
	CHANNELS 6 Xposition Yposition Zposition Zrotation Yrotation Xrotation 
	JOINT LHipJoint
	{
		OFFSET 0.000000 0.000000 0.000000
		CHANNELS 3 Zrotation Yrotation Xrotation
		JOINT LeftUpLeg
		{
			OFFSET 1.800000 -1.400000 0.085000
			CHANNELS 3 Zrotation Yrotation Xrotation
			JOINT LeftLeg
			{
				OFFSET 2.215000 -6.000000 0.000000
				CHANNELS 3 Zrotation Yrotation Xrotation
				JOINT LeftFoot
				{
					OFFSET 2.500000 -6.900000 0.000000
					CHANNELS 3 Zrotation Yrotation Xrotation
					JOINT LeftToeBase
					{
						OFFSET 0.200000 -0.500000 1.950000
						CHANNELS 3 Zrotation Yrotation Xrotation
						End Site
						{
							OFFSET 0.000000 0.000000 0.000000
						}
					}
				}
			}
		}
	}
	JOINT RHipJoint
	{
		OFFSET 0.000000 0.000000 0.000000
		CHANNELS 3 Zrotation Yrotation Xrotation
		JOINT RightUpLeg
		{
			OFFSET -1.800000 -1.400000 0.085000
			CHANNELS 3 Zrotation Yrotation Xrotation
			JOINT RightLeg
			{
				OFFSET -2.215000 -6.000000 0.000000
				CHANNELS 3 Zrotation Yrotation Xrotation
				JOINT RightFoot
				{
					OFFSET -2.500000 -6.900000 0.000000
					CHANNELS 3 Zrotation Yrotation Xrotation
					JOINT RightToeBase
					{
						OFFSET -0.200000 -0.500000 1.950000
						CHANNELS 3 Zrotation Yrotation Xrotation
						End Site
						{
							OFFSET 0.000000 0.000000 0.000000
						}
					}
				}
			}
		}
	}
	JOINT LowerBack
	{
		OFFSET 0.000000 0.000000 0.000000
		CHANNELS 3 Zrotation Yrotation Xrotation
		JOINT Spine
		{
			OFFSET -0.087000 1.940000 -0.288900
			CHANNELS 3 Zrotation Yrotation Xrotation
			JOINT Spine1
			{
				OFFSET 0.000000 1.950000 0.060000
				CHANNELS 3 Zrotation Yrotation Xrotation
				JOINT Neck
				{
					OFFSET 0.000000 0.000000 0.000000
					CHANNELS 3 Zrotation Yrotation Xrotation
					JOINT Neck1
					{
						OFFSET 0.000000 1.600000 0.340000
						CHANNELS 3 Zrotation Yrotation Xrotation
						JOINT Head
						{
							OFFSET 0.000000 1.667000 -0.240000
							CHANNELS 3 Zrotation Yrotation Xrotation
							End Site
							{
								OFFSET 0.000000 0.000000 0.000000
							}
						}
					}
				}
				JOINT LeftShoulder
				{
					OFFSET 0.000000 0.000000 0.000000
					CHANNELS 3 Zrotation Yrotation Xrotation
					JOINT LeftArm
					{
						OFFSET 2.700000 1.550000 -0.730000
						CHANNELS 3 Zrotation Yrotation Xrotation
						JOINT LeftForeArm
						{
							OFFSET 5.450000 0.000000 0.000000
							CHANNELS 3 Zrotation Yrotation Xrotation
							JOINT LeftHand
							{
								OFFSET 3.450000 0.000000 0.000000
								CHANNELS 3 Zrotation Yrotation Xrotation
								JOINT LeftHandIndex1
								{
									OFFSET 0.750000 0.000000 0.000000
									CHANNELS 3 Zrotation Yrotation Xrotation
									End Site
									{
										OFFSET 0.000000 0.000000 0.000000
									}
								}
							}
						}
					}
				}
				JOINT RightShoulder
				{
					OFFSET 0.000000 0.000000 0.000000
					CHANNELS 3 Zrotation Yrotation Xrotation
					JOINT RightArm
					{
						OFFSET -2.700000 1.550000 -0.730000
						CHANNELS 3 Zrotation Yrotation Xrotation
						JOINT RightForeArm
						{
							OFFSET -5.450000 0.000000 0.000000
							CHANNELS 3 Zrotation Yrotation Xrotation
							JOINT RightHand
							{
								OFFSET -3.450000 0.000000 0.000000
								CHANNELS 3 Zrotation Yrotation Xrotation
								JOINT RightHandIndex1
								{
									OFFSET -0.750000 0.000000 0.000000
									CHANNELS 3 Zrotation Yrotation Xrotation
									End Site
									{
										OFFSET 0.000000 0.000000 0.000000
									}
								}
							}
						}
					}
				}
			}
		}
	}
}
MOTION
Frames: 10
Frame Time: 0.016667
0.870440 16.550940 -1.142060 -7.251861 -15.997397 2.876877 -15.338920 14.658028 3.543954 28.772368 -3.646127 -5.107535 2.282631 4.752613 5.745194 0.106001 5.447103 2.871185 0.318620 0.129490 0.181190 17.833128 -9.808484 2.556719 -6.943206 0.707136 -13.355716 10.831597 -5.604469 11.700360 -0.075375 -3.353886 3.357472 0.118740 0.491210 0.256950 -2.424834 -5.835901 -8.269196 13.120572 -6.417449 14.002541 1.803676 -0.977954 -13.568016 1.487157 -4.340987 -11.307224 -10.892456 12.857696 32.145517 2.679960 10.098940 4.224330 7.212996 0.809397 4.556907 19.164049 -8.672852 11.357812 136.734882 -55.421183 -93.335769 -4.256750 2.786067 0.124010 0.386930 -0.192160 0.258200 -7.389931 1.520230 2.346653 -10.214210 -10.045872 -2.443665 -136.751698 21.909724 -50.477570 2.122490 -2.776891 -0.132060 0.072820 -0.124410 -0.038950 
0.877760 16.532330 -1.125710 -7.678303 -15.420577 2.376420 -15.389375 14.654467 3.628175 29.446341 -3.685069 -4.505373 2.005439 4.905850 5.395333 0.108999 5.633087 2.819795 0.286860 0.069230 0.195640 17.801714 -9.740976 2.500917 -6.495405 0.615399 -12.615311 10.485993 -5.678209 12.157443 -0.078200 -3.378101 3.361196 0.092990 0.498510 0.250870 -2.322906 -5.998763 -8.327802 12.963274 -6.573306 13.955659 2.065077 -1.257547 -12.785744 2.063413 -3.997210 -11.203344 -10.353117 12.734530 33.007465 1.390310 10.987850 4.432320 6.398982 0.924366 4.101099 19.273901 -8.171662 11.017290 139.649461 -52.689778 -93.580833 -4.298360 2.782627 0.158070 0.394940 -0.196570 0.240070 -7.784887 1.405095 2.784410 -9.327402 -9.766865 -2.427831 -140.298662 20.973254 -54.013848 2.072338 -2.786134 -0.169090 0.092880 -0.102850 -0.068640 
0.877800 16.521950 -1.113700 -7.664070 -14.243264 1.134307 -15.444750 14.694504 3.647163 29.693876 -3.613360 -4.055434 2.015141 4.996822 5.494928 0.091551 5.717264 2.783403 0.283230 0.038150 0.224260 17.751795 -9.719153 2.455416 -6.797209 0.271300 -11.262920 10.718693 -5.926844 12.363374 -0.115167 -3.489321 3.315669 0.078760 0.463320 0.238200 -2.188482 -6.148931 -8.383377 11.919240 -6.376236 14.154238 2.728411 -1.457109 -11.285173 2.483396 -3.764114 -11.340891 -10.357251 12.305510 34.497243 0.869060 10.834810 3.979660 5.207019 -0.362620 4.152210 19.836654 -8.188355 10.420615 140.956621 -51.301218 -93.741672 -4.267956 2.760394 0.212240 0.363270 -0.180300 0.217720 -7.436497 2.638219 3.293031 -9.934701 -11.171861 -2.836789 -142.487630 19.942822 -55.769754 2.035562 -2.776379 -0.191170 0.097090 -0.094130 -0.100950 
0.870090 16.505680 -1.107130 -8.244107 -13.316148 0.628611 -15.508490 14.592654 3.706377 30.654269 -3.660086 -4.003040 1.826743 5.123730 5.192856 0.101932 5.851886 2.735444 0.258730 0.000680 0.233030 17.728715 -9.639608 2.405190 -6.466131 0.155762 -10.541674 11.083124 -6.177780 12.785862 -0.127598 -3.587797 3.292423 0.060020 0.461770 0.224550 -2.094740 -6.149134 -8.418485 11.101601 -6.002230 13.612203 4.101123 -1.979753 -8.687320 2.628094 -3.294988 -11.459424 -9.454043 11.796178 34.532722 0.003820 11.104110 3.993290 4.694347 -1.852777 4.609130 19.443461 -6.768950 9.415654 141.501418 -48.679625 -91.612402 -4.285060 2.745498 0.224400 0.365850 -0.187030 0.201060 -7.369907 3.668415 3.589623 -9.438524 -12.111792 -3.896274 -142.762624 17.907217 -52.831257 2.013329 -2.787495 -0.211590 0.108540 -0.082660 -0.118700 
0.857310 16.501700 -1.099210 -8.616363 -12.550865 0.310981 -15.594858 14.542600 3.741904 31.158934 -3.785304 -3.987335 1.919331 5.124744 4.874980 0.133446 5.885719 2.719739 0.228810 -0.036600 0.232250 17.670518 -9.571257 2.374908 -6.100935 0.115805 -10.127459 11.285064 -6.337486 13.072220 -0.139557 -3.626274 3.292619 0.020820 0.440670 0.217790 -1.904028 -6.183442 -8.467654 9.423159 -5.523316 12.711355 6.435607 -2.542314 -5.967537 2.787370 -2.618752 -12.054441 -8.343905 11.277815 35.292122 -0.983090 11.624050 4.431440 4.451249 -4.174438 5.573995 19.236693 -4.343557 8.562966 143.777705 -46.175061 -92.384362 -4.288214 2.791239 0.241860 0.354800 -0.172260 0.189560 -7.473486 5.332254 4.222905 -8.650046 -13.799891 -5.240224 -143.179796 15.660740 -49.751675 1.990055 -2.813254 -0.211910 0.097430 -0.080870 -0.127440 
0.830760 16.493290 -1.084430 -8.410702 -12.278301 0.465219 -15.583062 14.557399 3.772124 30.936950 -3.737527 -4.247059 1.886845 5.081732 4.607077 0.183841 5.755394 2.757217 0.172600 -0.041240 0.160710 17.665192 -9.591826 2.392129 -6.182834 0.141219 -10.529222 11.521576 -6.413591 13.338737 -0.128239 -3.581896 3.330335 -0.008720 0.427440 0.150000 -1.915373 -6.174419 -8.518436 9.226365 -5.674520 12.191107 6.139083 -2.432141 -6.452580 3.008159 -3.113980 -13.217879 -9.725939 11.697632 36.359856 -0.012760 11.354260 5.530290 4.416529 -5.599638 6.459544 18.881630 -1.451732 8.578688 147.026373 -44.629491 -95.348441 -4.235983 2.805009 0.238360 0.315960 -0.160520 0.187590 -7.681054 7.223652 5.151374 -8.584618 -14.722394 -5.732615 -145.462991 14.311005 -50.604221 1.959610 -2.821305 -0.213210 0.121480 -0.076630 -0.096020 
0.809640 16.476320 -1.075990 -9.025883 -12.076411 0.837993 -15.535144 14.412759 3.798348 31.427419 -3.854880 -4.134265 1.810178 5.080539 4.229899 0.207839 5.789889 2.757624 0.167950 -0.052120 0.161030 17.729062 -9.611516 2.415837 -5.443018 0.289827 -10.884701 11.682199 -6.489065 13.721196 -0.136007 -3.583359 3.334334 -0.019590 0.432180 0.138780 -2.087674 -5.876572 -8.514134 10.190249 -5.625814 11.272550 5.595993 -2.644332 -5.821204 2.848289 -2.968957 -13.635962 -9.372746 11.483353 36.657679 0.538860 10.935690 6.157790 4.190597 -6.888710 6.665490 20.347560 0.351316 8.493416 148.592523 -44.283057 -97.400327 -4.204489 2.845149 0.251060 0.305610 -0.154950 0.200140 -7.408420 8.358405 5.696953 -8.748562 -14.848830 -6.070252 -147.394594 12.898046 -50.430505 1.931031 -2.843321 -0.222760 0.130450 -0.090550 -0.090540 
0.778590 16.465910 -1.067900 -9.279515 -11.601446 0.911758 -15.517214 14.226091 3.757707 31.781433 -3.975370 -4.226217 1.847135 5.034839 4.121370 0.232606 5.791941 2.737751 0.195300 -0.064460 0.201370 17.771960 -9.665508 2.434614 -5.087939 0.332408 -10.831100 12.004028 -6.582199 13.638267 -0.156943 -3.640821 3.300550 -0.044730 0.403550 0.194540 -2.184496 -5.437977 -8.456140 9.604245 -4.929301 9.803819 6.474811 -3.123801 -3.627823 2.472641 -2.456524 -13.735683 -8.351196 10.781621 37.214244 0.489390 10.409850 7.002400 3.544800 -8.983442 6.875401 22.896101 0.985307 8.242378 149.573249 -44.384744 -99.083901 -4.201396 2.953939 0.242660 0.305520 -0.141010 0.194340 -6.333315 9.843285 6.045758 -10.212669 -16.014334 -6.579640 -148.945647 10.947253 -47.939682 1.921633 -2.898815 -0.173730 0.066080 -0.100230 -0.098050 
0.741250 16.462700 -1.061420 -9.664681 -11.428652 0.772259 -15.488670 14.155532 3.739957 32.301034 -3.826913 -4.765197 1.969857 5.080733 4.545295 0.166156 5.790843 2.713510 0.230560 -0.019640 0.223980 17.815377 -9.666601 2.469892 -4.639406 0.272005 -10.194023 12.304187 -6.546273 13.181449 -0.176702 -3.672399 3.270621 0.008940 0.380870 0.160680 -2.298010 -5.302588 -8.447801 10.288136 -4.422699 10.023148 6.100790 -2.517410 -4.012792 1.952134 -2.819042 -13.344992 -9.172412 10.273066 37.049529 1.254040 8.873780 5.172390 3.994828 -8.804505 6.539685 24.407504 -0.563740 8.589806 150.966452 -44.976291 -101.459561 -4.181850 2.945566 0.261710 0.277060 -0.144800 0.184880 -5.799993 9.992082 5.632210 -11.300698 -15.883005 -7.501110 -149.570286 7.905506 -39.876714 1.911918 -2.992829 -0.197890 0.095110 -0.105920 -0.112640 
0.696120 16.456070 -1.053840 -9.986634 -10.969348 0.600735 -15.466193 14.093434 3.764172 32.935613 -3.697090 -5.213880 2.165522 5.104016 4.692413 0.103376 5.833781 2.679487 0.255610 0.004350 0.243740 17.851283 -9.639123 2.512083 -4.083427 0.159517 -9.421451 12.596932 -6.494516 12.465044 -0.199488 -3.693728 3.258355 0.046660 0.372720 0.144440 -2.398011 -5.246977 -8.491033 11.452050 -3.830517 10.362163 4.914257 -1.470166 -5.165154 1.858681 -3.048171 -12.956944 -9.930665 9.871305 37.569221 1.371430 7.854780 3.530050 4.406189 -8.300813 6.201350 25.750472 -2.976928 9.180662 152.653677 -46.393085 -105.230845 -4.189479 2.908626 0.289580 0.264700 -0.146270 0.176900 -6.017086 9.816706 5.028692 -12.377781 -16.364091 -8.466127 -148.846126 4.917784 -29.395223 1.938782 -3.074814 -0.223150 0.129740 -0.097860 -0.131090 
